<svg xmlns="http://www.w3.org/2000/svg" xml:space="preserve" width="128" height="128" data-id="lg_3c6X2wlIrGIQzR65V9" data-version="1"><g data-padding="20"><g transform="translate(54.05 54.496)scale(.17607)"><path fill="#ff4136" stroke="transparent" d="M-97.288 219.992q-20.31-.49-37.83-10.88t-24.53-28.28l10.87-39.4 26.83 2.18v-2.18l16.68-210.27-40.85-12.33q1.69-21.75 10.76-43.51 9.06-21.75 34.44-34.56 8.46.97 24.53 5.2 16.08 4.23 35.05 10.87 18.97 6.65 36.98 14.99t30.57 18l41.58 190.95 1.93-.24 6.28-53.18q3.15-17.88 6.65-37.46 3.51-19.58 6.77-36.74t5.44-28.04q-6.77-2.9-12.93-5.8-6.17-2.9-10.76-5.56 1.93-21.75 14.74-42.54 12.81-20.78 37.23-30.45 9.66 1.45 26.34 7.73 16.68 6.29 35.17 15.35 18.49 9.07 34.32 18.98t23.81 18.36q-.73 17.89-2.06 45.93-1.33 28.03-3.74 61.27-2.42 33.23-6.41 67.55t-9.79 65.02l44.96-6.53 7.73 40.13q-1.93 2.9-5.92 10.15t-11.12 15.47q-7.13 8.21-18 14.02-10.88 5.8-26.35 5.8-21.27 0-38.07-11.73-16.8-11.72-19.7-35.16-1.45-11.36-2.65-32.75-1.21-21.39-2.42-44.6-1.45-28.52-2.06-59.33-.6-30.82-.48-58.37.12-27.56.61-45.93l-4.6-.72-46.89 205.68q7.74 16.68 11.24 33.84 3.51 17.16 6.65 35.77-9.43 6.77-21.87 9.91-12.45 3.14-25.99 3.14-18.12 0-35.41-5.31-17.28-5.32-28.15-14.26 0-5.08.72-15.59.73-10.52 2.9-21.51 2.18-11 6.29-17.04l-69.86-214.87-4.59 1.69q1.45 7.25 4.35 26.1t6.41 44.47q3.5 25.62 6.64 53.54 3.15 27.92 5.44 53.66 2.3 25.74 2.54 44.59.24 17.4-4.95 32.15-5.2 14.74-17.41 23.68-12.2 8.95-33.47 8.95h-1.45Z"/><rect width="449.84" height="559.35" x="-569.408" y="-626.368" fill="none" rx="0" ry="0" transform="translate(401 400.67)"/></g><path fill="transparent" stroke="transparent" stroke-width=".184" d="M22.542 12.5h82.916v103H22.542z"/></g></svg>